HIERARCHY
ROOT Hips
{
	OFFSET 0.00000 0.00000 0.00000
	CHANNELS 6 Xposition Yposition Zposition Zrotation Yrotation Xrotation 
	JOINT LHipJoint
	{
		OFFSET 0 0 0
		CHANNELS 3 Zrotation Yrotation Xrotation
		JOINT LeftHip
		{
			OFFSET 1.60223 -1.58443 0.78595
			CHANNELS 3 Zrotation Yrotation Xrotation
			JOINT LeftKnee
			{
				OFFSET 2.21690 -6.09089 0.00000
				CHANNELS 3 Zrotation Yrotation Xrotation
				JOINT LeftAnkle
				{
					OFFSET 2.34805 -6.45122 0.00000
					CHANNELS 3 Zrotation Yrotation Xrotation
					JOINT LeftToe
					{
						OFFSET 0.35452 -0.97402 1.38549
						CHANNELS 3 Zrotation Yrotation Xrotation
						End Site
						{
							OFFSET 0.00000 -0.00000 0.82816
						}
					}
				}
			}
		}
	}
	JOINT RHipJoint
	{
		OFFSET 0 0 0
		CHANNELS 3 Zrotation Yrotation Xrotation
		JOINT RightHip
		{
			OFFSET -1.56524 -1.58443 0.78595
			CHANNELS 3 Zrotation Yrotation Xrotation
			JOINT RightKnee
			{
				OFFSET -2.15558 -5.92241 0.00000
				CHANNELS 3 Zrotation Yrotation Xrotation
				JOINT RightAnkle
				{
					OFFSET -2.35077 -6.45870 0.00000
					CHANNELS 3 Zrotation Yrotation Xrotation
					JOINT RightToe
					{
						OFFSET -0.26910 -0.73935 1.33295
						CHANNELS 3 Zrotation Yrotation Xrotation
						End Site
						{
							OFFSET -0.00000 -0.00000 0.75962
						}
					}
				}
			}
		}
	}
	JOINT lowerback
	{
		OFFSET 0 0 0
		CHANNELS 3 Zrotation Yrotation Xrotation
		JOINT Chest
		{
			OFFSET -0.05489 1.97104 -0.02993
			CHANNELS 3 Zrotation Yrotation Xrotation
			JOINT Chest2
			{
				OFFSET -0.00702 1.94230 0.13626
				CHANNELS 3 Zrotation Yrotation Xrotation
				JOINT lowerneck
				{
					OFFSET 0 0 0
					CHANNELS 3 Zrotation Yrotation Xrotation
					JOINT Neck
					{
						OFFSET -0.07858 1.62869 -0.02510
						CHANNELS 3 Zrotation Yrotation Xrotation
						JOINT Head
						{
							OFFSET 0.13978 1.59213 -0.29859
							CHANNELS 3 Zrotation Yrotation Xrotation
							End Site
							{
								OFFSET 0.05353 1.64420 -0.10000
							}
						}
					}
				}
				JOINT LeftCollar
				{
					OFFSET 0 0 0
					CHANNELS 3 Zrotation Yrotation Xrotation
					JOINT LeftShoulder
					{
						OFFSET 3.48263 1.15278 0.52941
CHANNELS 3 Zrotation Xrotation Yrotation
						JOINT LeftElbow
						{
OFFSET 0 -4.592070 -0.000000
CHANNELS 3 Zrotation Xrotation Yrotation
							JOINT LeftWrist
							{
OFFSET 0 -2.981090 -0.000000
CHANNELS 3 Zrotation Xrotation Yrotation
								JOINT lhand
								{
									OFFSET 0 0 0
CHANNELS 3 Zrotation Xrotation Yrotation
									JOINT LFingers
									{
OFFSET 0 -0.480200 -0.000000
CHANNELS 3 Zrotation Xrotation Yrotation
										End Site
										{
OFFSET 0 -0.387150 -0.000000
										}
									}
								}
								JOINT LThumb
								{
OFFSET 0 0.000000 0.000000
CHANNELS 3 Zrotation Xrotation Yrotation
									End Site
									{
OFFSET 0 -0.393060 0.393060
									}
								}
							}
						}
					}
				}
				JOINT RightCollar
				{
					OFFSET 0 0 0
					CHANNELS 3 Zrotation Yrotation Xrotation
					JOINT RightShoulder
					{
						OFFSET -3.52496 1.12722 0.24548
CHANNELS 3 Zrotation Xrotation Yrotation
						JOINT RightElbow
						{
OFFSET 0 -4.765080 -0.000000
CHANNELS 3 Zrotation Xrotation Yrotation
							JOINT RightWrist
							{
OFFSET 0 -2.789020 -0.000000
CHANNELS 3 Zrotation Xrotation Yrotation
								JOINT rhand
								{
									OFFSET 0 0 0
CHANNELS 3 Zrotation Xrotation Yrotation
									JOINT RFingers
									{
OFFSET 0 -0.721300 -0.000000
CHANNELS 3 Zrotation Xrotation Yrotation
										End Site
										{
OFFSET 0 -0.581530 -0.000000
										}
									}
								}
								JOINT RThumb
								{
OFFSET 0 0.000000 0.000000
CHANNELS 3 Zrotation Xrotation Yrotation
									End Site
									{
OFFSET 0 -0.590410 0.590410
									}
								}
							}
						}
					}
				}
			}
		}
	}
}
MOTION
Frames: 11
Frame Time: 0.008333333333333333
8.914831 16.638829 5.982880 359.219242 -72.372622 6.913429 0.000000 0.000000 0.000000 -16.059577 -22.201866 -18.247357 6.078912 14.504371 45.297551 -0.079284 -5.045425 2.845780 2.883059 -10.503121 -30.621937 0.000000 0.000000 0.000000 24.368836 -1.280940 -27.048917 -3.448602 -11.387878 33.599802 1.038586 18.335024 1.795033 -0.318217 3.497924 -9.687649 -1.424041 -3.144852 5.312963 -2.149916 -4.790410 -7.696498 -0.786358 -2.374011 -11.311959 -13.118635 -10.516160 5.301951 19.315076 -16.564930 7.050261 7.491455 -8.485823 3.927144 0.000000 0.000000 0.000000 10.949475 23.694013 -85.602694 129.164081 -53.327076 93.156854 22.381939 -4.442081 -4.155009 0.000000 0.000000 0.000000 -7.125000 0.000000 0.000000 -3.514076 34.456228 -0.913150 0.000000 0.000000 0.000000 -112.451180 -48.391303 -62.160627 -55.878318 -55.106661 -30.935404 -21.749796 -8.484867 -31.605478 0.000000 0.000000 0.000000 7.125000 0.000000 0.000000 5.577670 -3.402134 5.928563
9.547435 16.583228 6.410682 352.052414 -112.072215 14.505162 0.000000 0.000000 0.000000 -23.970616 -0.924996 -21.458376 5.525461 13.951835 43.045677 -0.107065 6.154568 -4.859724 3.718122 -11.775194 -34.941783 0.000000 0.000000 0.000000 21.276637 0.896908 -26.426489 -4.241868 -12.475032 37.434450 0.333609 15.819157 -7.168097 -0.995312 6.348083 -17.798031 -5.403050 -1.676073 5.504855 -4.431466 -3.842185 -8.548944 -1.155334 -1.796966 -12.376993 -11.806123 -6.834105 1.906601 21.040273 -12.098766 9.645956 8.057530 -6.110287 4.508859 0.000000 0.000000 0.000000 11.681081 21.986765 -86.003655 127.725363 -53.872025 91.998666 17.878880 -4.909955 -2.725909 0.000000 0.000000 0.000000 -7.125000 0.000000 0.000000 -7.063872 32.787088 -2.127420 0.000000 0.000000 0.000000 -119.976005 -50.956216 -55.914336 -64.694337 -57.426552 -38.275052 -9.130252 -14.820087 -37.538711 0.000000 0.000000 0.000000 7.125000 0.000000 0.000000 13.177785 -7.041882 15.067505
10.018763 16.785635 6.747496 357.189868 -146.814067 11.068598 0.000000 0.000000 0.000000 -26.508014 4.894573 -25.536317 5.373611 13.791501 42.410669 -1.525206 21.299073 -10.073368 2.191262 -9.221776 -26.514065 0.000000 0.000000 0.000000 18.766926 10.729832 -21.775036 -4.757972 -13.105847 39.766105 0.269119 9.995983 -0.056380 -0.812412 5.730548 -16.010039 -5.611597 -2.104498 2.944516 -5.688392 -5.111548 -9.988879 -2.287296 -2.730602 -12.641802 -11.731715 -5.309072 0.369199 23.656264 -11.258930 11.159194 8.980259 -5.786892 5.212062 0.000000 0.000000 0.000000 11.254011 21.340943 -86.119054 125.950519 -54.503139 90.559297 16.081895 -3.718288 -3.652693 0.000000 0.000000 0.000000 -7.125000 0.000000 0.000000 -8.614760 33.688228 -2.415722 0.000000 0.000000 0.000000 -131.762595 -51.301522 -62.722479 -76.361996 -59.285351 -48.217495 0.262043 -31.797614 -28.748322 0.000000 0.000000 0.000000 7.125000 0.000000 0.000000 17.946690 2.402548 18.102666
10.409031 16.766041 6.915174 360.944269 -174.790674 9.033801 0.000000 0.000000 0.000000 -22.235802 10.076355 -30.378552 7.048039 15.368126 49.048636 -1.763284 23.660550 -1.930587 0.168073 -2.289758 -6.318191 0.000000 0.000000 0.000000 19.999025 13.834353 -18.950142 -4.771024 -13.121225 39.823803 0.170147 10.128372 11.368515 -0.627309 4.966586 -13.831843 -2.152204 -4.672983 1.179972 -5.530421 -8.253280 -10.495863 -3.726421 -4.596749 -12.642712 -12.238967 -9.359975 1.733946 23.651914 -13.752107 11.597971 9.009384 -5.642067 5.700730 0.000000 0.000000 0.000000 9.057296 23.034920 -84.252602 125.625169 -54.613642 90.294100 12.973688 -3.775999 -2.942645 0.000000 0.000000 0.000000 -7.125000 0.000000 0.000000 -11.028934 32.856130 -3.332825 0.000000 0.000000 0.000000 -135.935386 -43.333642 -70.540921 -74.287550 -59.045860 -46.436196 -4.373675 -33.263481 -34.128946 0.000000 0.000000 0.000000 7.125000 0.000000 0.000000 15.469397 -3.147762 16.905455
10.807439 16.583709 6.990261 361.804357 -200.435331 6.790657 0.000000 0.000000 0.000000 -19.823440 6.647509 -26.898417 8.584597 16.532505 54.641561 -1.919257 26.942972 3.916608 0.742999 5.423253 15.138622 0.000000 0.000000 0.000000 21.904207 0.922744 -23.174797 -4.880064 -13.247358 40.301870 0.951851 20.210502 19.390369 -0.532247 -4.638547 12.887211 -2.096337 -8.600412 2.480168 -3.855183 -11.297652 -10.524762 -1.587035 -5.038592 -13.247528 -13.028817 -12.943711 5.491387 20.004700 -18.847973 7.613648 7.488655 -9.074395 4.544874 0.000000 0.000000 0.000000 6.221297 24.688405 -80.700119 126.710914 -54.238833 91.177454 12.226152 -2.003428 -2.984078 0.000000 0.000000 0.000000 -7.125000 0.000000 0.000000 -11.631519 32.873125 -3.517764 0.000000 0.000000 0.000000 -133.610703 -36.950764 -74.555998 -78.889211 -59.511745 -50.394473 -11.205049 -53.006713 -39.014650 0.000000 0.000000 0.000000 7.125000 0.000000 0.000000 12.253589 -8.795843 14.285477
11.181713 16.540959 6.958286 362.936962 -228.179476 8.354902 0.000000 0.000000 0.000000 -20.583117 -0.210690 -23.737913 8.825308 16.693966 55.484058 -0.475002 12.806984 -0.437177 0.143788 2.420476 6.670265 0.000000 0.000000 0.000000 23.900284 11.444678 -19.500423 -4.785437 -13.137819 39.887038 0.595035 16.541981 16.356879 -0.722482 -5.425655 15.128061 -1.445891 -9.325449 1.285946 -1.949311 -12.271974 -11.102194 0.113698 -5.592537 -12.898666 -14.075501 -17.803682 11.636786 18.045844 -25.543095 1.648374 6.963656 -13.069553 2.807954 0.000000 0.000000 0.000000 5.085400 28.296290 -76.818953 127.397632 -53.992639 91.733899 9.857363 1.055023 -4.826874 0.000000 0.000000 0.000000 -7.125000 0.000000 0.000000 -13.832168 34.605971 -3.612804 0.000000 0.000000 0.000000 -125.151886 -38.081585 -78.308258 -88.117846 -59.981639 -58.370152 -21.331871 -77.560244 -41.864886 0.000000 0.000000 0.000000 7.125000 0.000000 0.000000 7.600565 -13.575021 9.243431
11.567493 16.493147 6.764705 370.011923 -255.176943 16.164276 0.000000 0.000000 0.000000 -21.818720 -7.623634 -22.684134 8.294913 16.331169 53.617017 -0.760488 15.360487 -7.683519 0.270133 3.243269 8.965015 0.000000 0.000000 0.000000 24.540989 14.719651 -17.127779 -4.498234 -12.795224 38.607059 0.620422 15.646515 13.794488 -0.374634 -3.924538 10.865361 0.211337 -9.021542 0.752785 0.246613 -11.726685 -11.402290 1.474511 -5.464495 -12.746251 -14.215849 -22.177631 16.334995 16.706994 -31.479626 -2.953478 6.741902 -16.306376 1.480621 0.000000 0.000000 0.000000 2.620968 31.054078 -70.358535 127.908044 -53.804181 92.146011 9.060402 3.320843 -6.247153 0.000000 0.000000 0.000000 -7.125000 0.000000 0.000000 -14.746534 35.960523 -3.368845 0.000000 0.000000 0.000000 -112.897885 -42.572008 -77.054946 -92.958513 -59.965712 -62.561818 -25.195296 -84.425055 -44.669650 0.000000 0.000000 0.000000 7.125000 0.000000 0.000000 6.382346 -17.311202 8.032379
12.075215 16.562792 6.561297 341.807202 -280.777795 -10.580363 0.000000 0.000000 0.000000 -19.957391 -16.343988 -22.824831 7.750573 15.932474 51.658822 -0.174236 9.916543 -10.868406 0.041057 -1.236320 -3.400279 0.000000 0.000000 0.000000 23.199935 5.415820 -20.797809 -4.214348 -12.440028 37.307346 1.883236 25.449130 20.942362 -1.089287 -6.632920 18.632339 1.240037 -8.691134 0.497910 2.045079 -11.170918 -11.453950 2.747294 -5.260862 -12.459993 -15.094463 -21.916423 19.683209 18.600112 -31.586010 -3.507851 7.720207 -16.589025 1.307772 0.000000 0.000000 0.000000 0.506816 34.404600 -63.477272 130.273078 -52.883961 94.043489 10.807811 3.880610 -6.808527 0.000000 0.000000 0.000000 -7.125000 0.000000 0.000000 -13.424679 36.613802 -2.831415 0.000000 0.000000 0.000000 -92.986908 -49.992587 -64.579295 -98.423818 -59.722675 -67.288062 -29.966871 -88.136354 -44.203601 0.000000 0.000000 0.000000 7.125000 0.000000 0.000000 4.011556 -18.227567 5.074873
12.657890 16.669320 6.385089 354.403710 -304.204095 2.315806 0.000000 0.000000 0.000000 -17.680091 -20.043088 -22.576151 6.688939 15.059746 47.679748 0.125647 -4.224857 -7.026018 0.717705 -5.345595 -14.913163 0.000000 0.000000 0.000000 21.430949 5.885203 -18.494089 -3.555492 -11.540521 34.129759 1.886432 25.289336 20.186756 -0.382018 -3.940429 10.912770 1.034589 -7.618105 2.137433 2.633212 -9.808138 -10.793670 3.519223 -4.592249 -12.552453 -14.578720 -21.751540 18.436166 17.944289 -31.556569 -0.387804 7.161670 -16.483647 2.232177 0.000000 0.000000 0.000000 2.148220 37.114565 -60.401416 132.536503 -51.918658 95.836919 9.733768 3.220967 -8.498814 0.000000 0.000000 0.000000 -7.125000 0.000000 0.000000 -14.668868 38.207693 -2.518634 0.000000 0.000000 0.000000 -65.797359 -52.905802 -44.546733 -108.807365 -58.595591 -76.208378 -28.271710 -90.746857 -45.656521 0.000000 0.000000 0.000000 7.125000 0.000000 0.000000 5.222735 -19.127698 6.667314
13.314997 16.800142 6.270733 354.739574 -324.891723 3.784465 0.000000 0.000000 0.000000 -13.841417 -27.647700 -19.449531 5.547788 13.974951 43.137805 -0.687596 -14.570578 4.047278 0.869665 -5.785635 -16.208589 0.000000 0.000000 0.000000 20.760398 14.685663 -13.339638 -2.752087 -10.281910 29.895100 0.931622 18.516686 15.429588 -0.033075 0.047168 -0.129887 1.358079 -7.004054 3.186558 3.474638 -8.948538 -9.815665 4.191272 -4.212388 -11.987296 -14.356358 -21.295336 16.940807 17.174558 -30.992668 0.947490 6.754192 -16.119292 2.595580 0.000000 0.000000 0.000000 4.579149 39.748954 -58.534416 134.045613 -51.227405 97.019525 9.509373 5.308169 -10.452379 0.000000 0.000000 0.000000 -7.125000 0.000000 0.000000 -15.321766 40.100091 -1.902176 0.000000 0.000000 0.000000 -40.468703 -48.802464 -24.042985 -118.070700 -56.799822 -84.048411 -27.561765 -89.541796 -45.299942 0.000000 0.000000 0.000000 7.125000 0.000000 0.000000 5.445308 -18.576925 6.923283
14.031167 16.638849 6.192388 354.506165 -345.730434 5.961160 0.000000 0.000000 0.000000 -14.481241 -30.439400 -14.894849 5.363908 13.782123 42.371854 -0.270898 -11.139673 -2.478260 2.740394 -10.256986 -29.818134 0.000000 0.000000 0.000000 18.681233 19.570233 -15.340646 -3.243872 -11.074213 32.536825 0.564721 13.484235 2.612543 -1.250986 7.047672 -19.874774 1.453328 -6.318839 2.605808 4.486159 -8.013730 -9.096775 4.940283 -3.789989 -10.715647 -14.152909 -19.709419 15.363236 15.695397 -28.744677 1.637449 6.401051 -14.912171 2.421819 0.000000 0.000000 0.000000 5.871689 42.069055 -55.509719 134.846686 -50.843176 97.642313 10.352036 7.640144 -10.627766 0.000000 0.000000 0.000000 -7.125000 0.000000 0.000000 -14.647423 40.342615 -1.724920 0.000000 0.000000 0.000000 -24.013430 -39.908329 -9.516339 -121.985807 -55.754895 -87.305433 -19.349108 -89.439159 -42.579976 0.000000 0.000000 0.000000 7.125000 0.000000 0.000000 8.742274 -14.142556 10.677377
